<?xml version="1.0" encoding="UTF-8"?>
<svg version="1.1" xmlns="http://www.w3.org/2000/svg" width="300" height="300">
<path d="M0 0 C99 0 198 0 300 0 C300 99 300 198 300 300 C201 300 102 300 0 300 C0 201 0 102 0 0 Z " fill="transparent" transform="translate(0,0)"/>
<path d="M0 0 C2.03842954 3.69937212 2.1320058 5.8066837 1.38671875 9.90234375 C0.23824226 13.45043033 -1.21744732 15.02108227 -4.3125 17.0625 C-7.1190443 17.45749512 -9.45555754 17.30461377 -12.3125 17.0625 C-12.3125 18.7125 -12.3125 20.3625 -12.3125 22.0625 C-11.6525 22.0625 -10.9925 22.0625 -10.3125 22.0625 C-10.3125 21.4025 -10.3125 20.7425 -10.3125 20.0625 C-8.08068244 20.55845946 -6.19023662 21.12188507 -4.125 22.125 C0.33280638 23.61093546 5.46387894 24.12686778 9.79296875 22.0546875 C10.41816406 21.72726563 11.04335937 21.39984375 11.6875 21.0625 C14.4375 20.9375 14.4375 20.9375 16.6875 21.0625 C16.5625 23.3125 16.5625 23.3125 15.6875 26.0625 C10.40231284 30.19873343 6.37518931 31.60182978 -0.3125 31.0625 C-8.0625 28.3125 -8.0625 28.3125 -10.3125 26.0625 C-13.6125 26.0625 -16.9125 26.0625 -20.3125 26.0625 C-20.3125 17.1525 -20.3125 8.2425 -20.3125 -0.9375 C-13.39504976 -2.32099005 -6.30412062 -3.68731583 0 0 Z " fill="#FFD300" transform="translate(189.3125,139.9375)"/>
<path d="M0 0 C3.18784595 0.16347928 4.57439906 0.55972317 6.8125 2.875 C8 5 8 5 8 8 C8.66 8 9.32 8 10 8 C10.12375 7.21625 10.2475 6.4325 10.375 5.625 C11 3 11 3 13 1 C16.125 0.875 16.125 0.875 19 1 C21.51466171 9.66681081 23.62265298 17.92480412 24 27 C21.69 27 19.38 27 17 27 C16.01 23.04 15.02 19.08 14 15 C13.01 16.98 12.02 18.96 11 21 C9.68 21 8.36 21 7 21 C6.01 19.02 5.02 17.04 4 15 C3.01 18.96 2.02 22.92 1 27 C-0.98 27 -2.96 27 -5 27 C-5.88129829 23.43645513 -6.01294232 20.80037696 -5.29296875 17.20703125 C-5.0309668 15.8912207 -5.0309668 15.8912207 -4.76367188 14.54882812 C-4.57353516 13.64583984 -4.38339844 12.74285156 -4.1875 11.8125 C-4.00896484 10.89791016 -3.83042969 9.98332031 -3.64648438 9.04101562 C-2.26032004 2.26032004 -2.26032004 2.26032004 0 0 Z " fill="#F5F5F5" transform="translate(65,129)"/>
<path d="M0 0 C1.18916016 0.02707031 1.18916016 0.02707031 2.40234375 0.0546875 C4.35208348 0.10166918 6.30119878 0.17340956 8.25 0.25 C8.27684312 3.06256281 8.29676188 5.87487241 8.3125 8.6875 C8.32087891 9.48994141 8.32925781 10.29238281 8.33789062 11.11914062 C8.3465143 13.16295221 8.3022815 15.20683902 8.25 17.25 C6.25913651 19.24086349 2.71573974 18.8795094 0 19.125 C-0.66902344 19.21007812 -1.33804688 19.29515625 -2.02734375 19.3828125 C-5.91390054 19.71878205 -7.52949815 19.41267487 -10.69921875 17.07421875 C-12.87444557 14.07862067 -13.40805846 12.82434248 -13.3125 9.1875 C-13.31378906 8.35089844 -13.31507812 7.51429688 -13.31640625 6.65234375 C-11.60488046 -0.60688632 -6.2362767 -0.26889419 0 0 Z " fill="#F4F4F4" transform="translate(103.75,137.75)"/>
<path d="M0 0 C0.69416016 -0.01224609 1.38832031 -0.02449219 2.10351562 -0.03710938 C3.92470901 -0.04239842 5.7453692 0.06580793 7.5625 0.1875 C9.5625 2.1875 9.5625 2.1875 9.7578125 5.8828125 C9.744509 7.35950108 9.72064835 8.83612358 9.6875 10.3125 C9.67847656 11.06660156 9.66945312 11.82070312 9.66015625 12.59765625 C9.6365687 14.46107254 9.60069719 16.32432593 9.5625 18.1875 C-5.45678796 20.11745939 -5.45678796 20.11745939 -9.3125 17.1875 C-11.86532095 13.58351749 -12.59260999 11.60813468 -12.4375 7.1875 C-8.773597 0.5924746 -7.18784211 0.00663697 0 0 Z " fill="#FFD300" transform="translate(205.4375,137.8125)"/>
<path d="M0 0 C3.71150802 1.77906996 5.67539914 4.08347993 7.0625 8 C6.96981857 12.44870846 5.27117573 14.6346631 2.3125 17.8125 C-1.10872305 19.56934427 -4.2951849 19.78220664 -8 19 C-11.0190434 17.24700706 -13.41511201 15.16977599 -15 12 C-15.43023798 8.12785818 -15.31669086 6.47503629 -13.125 3.1875 C-9.28323984 -0.76725311 -5.29081074 -0.78119353 0 0 Z " fill="#F4F4F4" transform="translate(161,138)"/>
<path d="M0 0 C2.75 -0.3125 2.75 -0.3125 6 0 C10 4 10 4 10 7 C10.66 7 11.32 7 12 7 C12.28875 6.21625 12.5775 5.4325 12.875 4.625 C14 2 14 2 16 0 C19.125 -0.125 19.125 -0.125 22 0 C20.42265263 5.52517159 17.84824903 10.26539856 15.0625 15.25 C14.61970703 16.0646875 14.17691406 16.879375 13.72070312 17.71875 C13.28822266 18.49734375 12.85574219 19.2759375 12.41015625 20.078125 C12.01965088 20.78356445 11.62914551 21.48900391 11.22680664 22.21582031 C10 24 10 24 7 26 C3.8125 26.125 3.8125 26.125 1 26 C1.38414062 25.34773438 1.76828125 24.69546875 2.1640625 24.0234375 C5.26059513 18.72503257 5.26059513 18.72503257 5.5625 12.8125 C4.35195287 10.63351517 3.12077149 8.4712376 1.875 6.3125 C0 3 0 3 0 0 Z " fill="#FFD300" transform="translate(218,139)"/>
<path d="M0 0 C2 2 2 2 2 6 C0.02 6.33 -1.96 6.66 -4 7 C-4 8.65 -4 10.3 -4 12 C-1.03 12.495 -1.03 12.495 2 13 C1.125 17.875 1.125 17.875 0 19 C-3.79276692 19.43099624 -5.52137386 19.31545814 -8.75 17.1875 C-11 15 -11 15 -13 12 C-13 7.36072958 -12.47554341 5.51978 -9.3125 2.0625 C-5.73948161 -0.16220957 -4.11438761 -0.65456166 0 0 Z " fill="#F0F0F0" transform="translate(126,138)"/>
<path d="M0 0 C4.29 0 8.58 0 13 0 C13 1.98 13 3.96 13 6 C12.21625 6.144375 11.4325 6.28875 10.625 6.4375 C7.84843237 7.71536857 7.84843237 7.71536857 7.22265625 10.13671875 C6.73164391 12.41974691 6.31887599 14.68695927 6 17 C4.34385343 17.38218767 2.67542976 17.71395102 1 18 C0 17 0 17 -0.09765625 13.18359375 C-0.09098089 11.60153318 -0.07901875 10.01948841 -0.0625 8.4375 C-0.05798828 7.63119141 -0.05347656 6.82488281 -0.04882812 5.99414062 C-0.03700518 3.99606244 -0.01906914 1.99802217 0 0 Z " fill="#F7F7F7" transform="translate(131,138)"/>
<path d="M0 0 C1.67542976 0.28604898 3.34385343 0.61781233 5 1 C4.67 2.65 4.34 4.3 4 6 C2.125 6.625 2.125 6.625 0 7 C-0.66 6.34 -1.32 5.68 -2 5 C-1.46428571 1.46428571 -1.46428571 1.46428571 0 0 Z " fill="#0149BE" transform="translate(202,144)"/>
<path d="M0 0 C1.67542976 0.28604898 3.34385343 0.61781233 5 1 C5 2.65 5 4.3 5 6 C3.34385343 6.38218767 1.67542976 6.71395102 0 7 C-1 6 -1 6 -1.125 3.5 C-1 1 -1 1 0 0 Z " fill="#0149BE" transform="translate(99,144)"/>
<path d="M0 0 C1.67542976 0.28604898 3.34385343 0.61781233 5 1 C5 2.65 5 4.3 5 6 C3.02 6 1.04 6 -1 6 C-1.042721 4.33388095 -1.04063832 2.66617115 -1 1 C-0.67 0.67 -0.34 0.34 0 0 Z " fill="#0149BE" transform="translate(155,144)"/>
<path d="M0 0 C1.65 0.33 3.3 0.66 5 1 C4.67 2.65 4.34 4.3 4 6 C2.35 5.67 0.7 5.34 -1 5 C-0.67 3.35 -0.34 1.7 0 0 Z " fill="#0149BE" transform="translate(178,144)"/>
</svg>
